<svg xmlns="http://www.w3.org/2000/svg" width="24" height="24" fill="none"><path fill="#000" fill-rule="evenodd" d="M1.5 2a.5.5 0 0 1 .5-.5h20a.5.5 0 0 1 .5.5v5a.5.5 0 0 1-.5.5H7.5v9H14a.5.5 0 0 1 .5.5v5a.5.5 0 0 1-.5.5H2a.5.5 0 0 1-.5-.5V2Zm1 .5v19h11v-4H7a.5.5 0 0 1-.5-.5V7a.5.5 0 0 1 .5-.5h14.5v-4h-19Z" clip-rule="evenodd"/><path fill="#000" fill-rule="evenodd" d="M9 9.5a.5.5 0 0 1 .5-.5H22a.5.5 0 0 1 .5.5V22a.5.5 0 0 1-.5.5h-5.5a.5.5 0 0 1-.5-.5v-7H9.5a.5.5 0 0 1-.5-.5v-5Zm1 .5v4h6.5a.5.5 0 0 1 .5.5v7h4.5V10H10Z" clip-rule="evenodd"/></svg>