<svg xmlns="http://www.w3.org/2000/svg" width="24" height="24" fill="none"><path fill="#000" fill-rule="evenodd" d="M4.021 3.356A.5.5 0 0 1 4.5 3h15a.5.5 0 0 1 .479.356l1.5 5a.5.5 0 0 1 .021.144 3.5 3.5 0 0 1-6.5 1.804A3.498 3.498 0 0 1 12 12a3.498 3.498 0 0 1-3-1.696A3.5 3.5 0 0 1 2.5 8.5a.5.5 0 0 1 .021-.144l1.5-5ZM9.5 8.5a2.5 2.5 0 0 0 5 0 .5.5 0 0 1 1 0 2.5 2.5 0 0 0 4.999.07L19.128 4H4.872L3.501 8.57A2.5 2.5 0 0 0 8.5 8.5a.5.5 0 0 1 1 0Z" clip-rule="evenodd"/><path fill="#000" fill-rule="evenodd" d="M4.5 20v-9h-1v9.5a.5.5 0 0 0 .5.5h16a.5.5 0 0 0 .5-.5V11h-1v9h-15Z" clip-rule="evenodd"/></svg>